<svg width="224" height="224" fill="none" xmlns="http://www.w3.org/2000/svg"><path fill="#fff" fill-opacity=".08" d="M0 0h8v8H0zM0 16h8v8H0zM0 32h8v8H0zM0 48h8v8H0zM0 64h8v8H0zM0 80h8v8H0zM0 96h8v8H0zM0 112h8v8H0zM0 128h8v8H0zM0 144h8v8H0zM0 160h8v8H0zM0 176h8v8H0zM0 192h8v8H0zM0 208h8v8H0zM16 0h8v8h-8zM16 16h8v8h-8zM16 32h8v8h-8zM16 48h8v8h-8zM16 64h8v8h-8zM16 80h8v8h-8zM16 96h8v8h-8zM16 112h8v8h-8zM16 128h8v8h-8zM16 144h8v8h-8zM16 160h8v8h-8zM16 176h8v8h-8zM16 192h8v8h-8zM16 208h8v8h-8zM32 0h8v8h-8zM32 16h8v8h-8zM32 32h8v8h-8zM32 48h8v8h-8zM32 64h8v8h-8zM32 80h8v8h-8zM32 96h8v8h-8zM32 112h8v8h-8zM32 128h8v8h-8zM32 144h8v8h-8zM32 160h8v8h-8zM32 176h8v8h-8zM32 192h8v8h-8zM32 208h8v8h-8zM48 0h8v8h-8zM48 16h8v8h-8zM48 32h8v8h-8zM48 48h8v8h-8zM48 64h8v8h-8zM48 80h8v8h-8zM48 96h8v8h-8zM48 112h8v8h-8zM48 128h8v8h-8zM48 144h8v8h-8zM48 160h8v8h-8zM48 176h8v8h-8zM48 192h8v8h-8zM48 208h8v8h-8zM64 0h8v8h-8zM64 16h8v8h-8zM64 32h8v8h-8zM64 48h8v8h-8zM64 64h8v8h-8zM64 80h8v8h-8zM64 96h8v8h-8zM64 112h8v8h-8zM64 128h8v8h-8zM64 144h8v8h-8zM64 160h8v8h-8zM64 176h8v8h-8zM64 192h8v8h-8zM64 208h8v8h-8zM80 0h8v8h-8zM80 16h8v8h-8zM80 32h8v8h-8zM80 48h8v8h-8zM80 64h8v8h-8zM80 80h8v8h-8zM80 96h8v8h-8zM80 112h8v8h-8zM80 128h8v8h-8zM80 144h8v8h-8zM80 160h8v8h-8zM80 176h8v8h-8zM80 192h8v8h-8zM80 208h8v8h-8zM96 0h8v8h-8zM96 16h8v8h-8zM96 32h8v8h-8zM96 48h8v8h-8zM96 64h8v8h-8zM96 80h8v8h-8zM96 96h8v8h-8zM96 112h8v8h-8zM96 128h8v8h-8zM96 144h8v8h-8zM96 160h8v8h-8zM96 176h8v8h-8zM96 192h8v8h-8zM96 208h8v8h-8zM112 0h8v8h-8zM112 16h8v8h-8zM112 32h8v8h-8zM112 48h8v8h-8zM112 64h8v8h-8zM112 80h8v8h-8zM112 96h8v8h-8zM112 112h8v8h-8zM112 128h8v8h-8zM112 144h8v8h-8zM112 160h8v8h-8zM112 176h8v8h-8zM112 192h8v8h-8zM112 208h8v8h-8zM128 0h8v8h-8zM128 16h8v8h-8zM128 32h8v8h-8zM128 48h8v8h-8zM128 64h8v8h-8zM128 80h8v8h-8zM128 96h8v8h-8zM128 112h8v8h-8zM128 128h8v8h-8zM128 144h8v8h-8zM128 160h8v8h-8zM128 176h8v8h-8zM128 192h8v8h-8zM128 208h8v8h-8zM144 0h8v8h-8zM144 16h8v8h-8zM144 32h8v8h-8zM144 48h8v8h-8zM144 64h8v8h-8zM144 80h8v8h-8zM144 96h8v8h-8zM144 112h8v8h-8zM144 128h8v8h-8zM144 144h8v8h-8zM144 160h8v8h-8zM144 176h8v8h-8zM144 192h8v8h-8zM144 208h8v8h-8zM160 0h8v8h-8zM160 16h8v8h-8zM160 32h8v8h-8zM160 48h8v8h-8zM160 64h8v8h-8zM160 80h8v8h-8zM160 96h8v8h-8zM160 112h8v8h-8zM160 128h8v8h-8zM160 144h8v8h-8zM160 160h8v8h-8zM160 176h8v8h-8zM160 192h8v8h-8zM160 208h8v8h-8zM176 0h8v8h-8zM176 16h8v8h-8zM176 32h8v8h-8zM176 48h8v8h-8zM176 64h8v8h-8zM176 80h8v8h-8zM176 96h8v8h-8zM176 112h8v8h-8zM176 128h8v8h-8zM176 144h8v8h-8zM176 160h8v8h-8zM176 176h8v8h-8zM176 192h8v8h-8zM176 208h8v8h-8zM192 0h8v8h-8zM192 16h8v8h-8zM192 32h8v8h-8zM192 48h8v8h-8zM192 64h8v8h-8zM192 80h8v8h-8zM192 96h8v8h-8zM192 112h8v8h-8zM192 128h8v8h-8zM192 144h8v8h-8zM192 160h8v8h-8zM192 176h8v8h-8zM192 192h8v8h-8zM192 208h8v8h-8zM208 0h8v8h-8zM208 16h8v8h-8zM208 32h8v8h-8zM208 48h8v8h-8zM208 64h8v8h-8zM208 80h8v8h-8zM208 96h8v8h-8zM208 112h8v8h-8zM208 128h8v8h-8zM208 144h8v8h-8zM208 160h8v8h-8zM208 176h8v8h-8zM208 192h8v8h-8zM208 208h8v8h-8zM8 8h8v8H8zM8 24h8v8H8zM8 40h8v8H8zM8 56h8v8H8zM8 72h8v8H8zM8 88h8v8H8zM8 104h8v8H8zM8 120h8v8H8zM8 136h8v8H8zM8 152h8v8H8zM8 168h8v8H8zM8 184h8v8H8zM8 200h8v8H8zM8 216h8v8H8zM24 8h8v8h-8zM24 24h8v8h-8zM24 40h8v8h-8zM24 56h8v8h-8zM24 72h8v8h-8zM24 88h8v8h-8zM24 104h8v8h-8zM24 120h8v8h-8zM24 136h8v8h-8zM24 152h8v8h-8zM24 168h8v8h-8zM24 184h8v8h-8zM24 200h8v8h-8zM24 216h8v8h-8zM40 8h8v8h-8zM40 24h8v8h-8zM40 40h8v8h-8zM40 56h8v8h-8zM40 72h8v8h-8zM40 88h8v8h-8zM40 104h8v8h-8zM40 120h8v8h-8zM40 136h8v8h-8zM40 152h8v8h-8zM40 168h8v8h-8zM40 184h8v8h-8zM40 200h8v8h-8zM40 216h8v8h-8zM56 8h8v8h-8zM56 24h8v8h-8zM56 40h8v8h-8zM56 56h8v8h-8zM56 72h8v8h-8zM56 88h8v8h-8zM56 104h8v8h-8zM56 120h8v8h-8zM56 136h8v8h-8zM56 152h8v8h-8zM56 168h8v8h-8zM56 184h8v8h-8zM56 200h8v8h-8zM56 216h8v8h-8zM72 8h8v8h-8zM72 24h8v8h-8zM72 40h8v8h-8zM72 56h8v8h-8zM72 72h8v8h-8zM72 88h8v8h-8zM72 104h8v8h-8zM72 120h8v8h-8zM72 136h8v8h-8zM72 152h8v8h-8zM72 168h8v8h-8zM72 184h8v8h-8zM72 200h8v8h-8zM72 216h8v8h-8zM88 8h8v8h-8zM88 24h8v8h-8zM88 40h8v8h-8zM88 56h8v8h-8zM88 72h8v8h-8zM88 88h8v8h-8zM88 104h8v8h-8zM88 120h8v8h-8zM88 136h8v8h-8zM88 152h8v8h-8zM88 168h8v8h-8zM88 184h8v8h-8zM88 200h8v8h-8zM88 216h8v8h-8zM104 8h8v8h-8zM104 24h8v8h-8zM104 40h8v8h-8zM104 56h8v8h-8zM104 72h8v8h-8zM104 88h8v8h-8zM104 104h8v8h-8zM104 120h8v8h-8zM104 136h8v8h-8zM104 152h8v8h-8zM104 168h8v8h-8zM104 184h8v8h-8zM104 200h8v8h-8zM104 216h8v8h-8zM120 8h8v8h-8zM120 24h8v8h-8zM120 40h8v8h-8zM120 56h8v8h-8zM120 72h8v8h-8zM120 88h8v8h-8zM120 104h8v8h-8zM120 120h8v8h-8zM120 136h8v8h-8zM120 152h8v8h-8zM120 168h8v8h-8zM120 184h8v8h-8zM120 200h8v8h-8zM120 216h8v8h-8zM136 8h8v8h-8zM136 24h8v8h-8zM136 40h8v8h-8zM136 56h8v8h-8zM136 72h8v8h-8zM136 88h8v8h-8zM136 104h8v8h-8zM136 120h8v8h-8zM136 136h8v8h-8zM136 152h8v8h-8zM136 168h8v8h-8zM136 184h8v8h-8zM136 200h8v8h-8zM136 216h8v8h-8zM152 8h8v8h-8zM152 24h8v8h-8zM152 40h8v8h-8zM152 56h8v8h-8zM152 72h8v8h-8zM152 88h8v8h-8zM152 104h8v8h-8zM152 120h8v8h-8zM152 136h8v8h-8zM152 152h8v8h-8zM152 168h8v8h-8zM152 184h8v8h-8zM152 200h8v8h-8zM152 216h8v8h-8zM168 8h8v8h-8zM168 24h8v8h-8zM168 40h8v8h-8zM168 56h8v8h-8zM168 72h8v8h-8zM168 88h8v8h-8zM168 104h8v8h-8zM168 120h8v8h-8zM168 136h8v8h-8zM168 152h8v8h-8zM168 168h8v8h-8zM168 184h8v8h-8zM168 200h8v8h-8zM168 216h8v8h-8zM184 8h8v8h-8zM184 24h8v8h-8zM184 40h8v8h-8zM184 56h8v8h-8zM184 72h8v8h-8zM184 88h8v8h-8zM184 104h8v8h-8zM184 120h8v8h-8zM184 136h8v8h-8zM184 152h8v8h-8zM184 168h8v8h-8zM184 184h8v8h-8zM184 200h8v8h-8zM184 216h8v8h-8zM200 8h8v8h-8zM200 24h8v8h-8zM200 40h8v8h-8zM200 56h8v8h-8zM200 72h8v8h-8zM200 88h8v8h-8zM200 104h8v8h-8zM200 120h8v8h-8zM200 136h8v8h-8zM200 152h8v8h-8zM200 168h8v8h-8zM200 184h8v8h-8zM200 200h8v8h-8zM200 216h8v8h-8zM216 8h8v8h-8zM216 24h8v8h-8zM216 40h8v8h-8zM216 56h8v8h-8zM216 72h8v8h-8zM216 88h8v8h-8zM216 104h8v8h-8zM216 120h8v8h-8zM216 136h8v8h-8zM216 152h8v8h-8zM216 168h8v8h-8zM216 184h8v8h-8zM216 200h8v8h-8zM216 216h8v8h-8z"/><path fill="#191B26" fill-opacity=".08" d="M8 0h8v8H8zM8 16h8v8H8zM8 32h8v8H8zM8 48h8v8H8zM8 64h8v8H8zM8 80h8v8H8zM8 96h8v8H8zM8 112h8v8H8zM8 128h8v8H8zM8 144h8v8H8zM8 160h8v8H8zM8 176h8v8H8zM8 192h8v8H8zM8 208h8v8H8zM24 0h8v8h-8zM24 16h8v8h-8zM24 32h8v8h-8zM24 48h8v8h-8zM24 64h8v8h-8zM24 80h8v8h-8zM24 96h8v8h-8zM24 112h8v8h-8zM24 128h8v8h-8zM24 144h8v8h-8zM24 160h8v8h-8zM24 176h8v8h-8zM24 192h8v8h-8zM24 208h8v8h-8zM40 0h8v8h-8zM40 16h8v8h-8zM40 32h8v8h-8zM40 48h8v8h-8zM40 64h8v8h-8zM40 80h8v8h-8zM40 96h8v8h-8zM40 112h8v8h-8zM40 128h8v8h-8zM40 144h8v8h-8zM40 160h8v8h-8zM40 176h8v8h-8zM40 192h8v8h-8zM40 208h8v8h-8zM56 0h8v8h-8zM56 16h8v8h-8zM56 32h8v8h-8zM56 48h8v8h-8zM56 64h8v8h-8zM56 80h8v8h-8zM56 96h8v8h-8zM56 112h8v8h-8zM56 128h8v8h-8zM56 144h8v8h-8zM56 160h8v8h-8zM56 176h8v8h-8zM56 192h8v8h-8zM56 208h8v8h-8zM72 0h8v8h-8zM72 16h8v8h-8zM72 32h8v8h-8zM72 48h8v8h-8zM72 64h8v8h-8zM72 80h8v8h-8zM72 96h8v8h-8zM72 112h8v8h-8zM72 128h8v8h-8zM72 144h8v8h-8zM72 160h8v8h-8zM72 176h8v8h-8zM72 192h8v8h-8zM72 208h8v8h-8zM88 0h8v8h-8zM88 16h8v8h-8zM88 32h8v8h-8zM88 48h8v8h-8zM88 64h8v8h-8zM88 80h8v8h-8zM88 96h8v8h-8zM88 112h8v8h-8zM88 128h8v8h-8zM88 144h8v8h-8zM88 160h8v8h-8zM88 176h8v8h-8zM88 192h8v8h-8zM88 208h8v8h-8zM104 0h8v8h-8zM104 16h8v8h-8zM104 32h8v8h-8zM104 48h8v8h-8zM104 64h8v8h-8zM104 80h8v8h-8zM104 96h8v8h-8zM104 112h8v8h-8zM104 128h8v8h-8zM104 144h8v8h-8zM104 160h8v8h-8zM104 176h8v8h-8zM104 192h8v8h-8zM104 208h8v8h-8zM120 0h8v8h-8zM120 16h8v8h-8zM120 32h8v8h-8zM120 48h8v8h-8zM120 64h8v8h-8zM120 80h8v8h-8zM120 96h8v8h-8zM120 112h8v8h-8zM120 128h8v8h-8zM120 144h8v8h-8zM120 160h8v8h-8zM120 176h8v8h-8zM120 192h8v8h-8zM120 208h8v8h-8zM136 0h8v8h-8zM136 16h8v8h-8zM136 32h8v8h-8zM136 48h8v8h-8zM136 64h8v8h-8zM136 80h8v8h-8zM136 96h8v8h-8zM136 112h8v8h-8zM136 128h8v8h-8zM136 144h8v8h-8zM136 160h8v8h-8zM136 176h8v8h-8zM136 192h8v8h-8zM136 208h8v8h-8zM152 0h8v8h-8zM152 16h8v8h-8zM152 32h8v8h-8zM152 48h8v8h-8zM152 64h8v8h-8zM152 80h8v8h-8zM152 96h8v8h-8zM152 112h8v8h-8zM152 128h8v8h-8zM152 144h8v8h-8zM152 160h8v8h-8zM152 176h8v8h-8zM152 192h8v8h-8zM152 208h8v8h-8zM168 0h8v8h-8zM168 16h8v8h-8zM168 32h8v8h-8zM168 48h8v8h-8zM168 64h8v8h-8zM168 80h8v8h-8zM168 96h8v8h-8zM168 112h8v8h-8zM168 128h8v8h-8zM168 144h8v8h-8zM168 160h8v8h-8zM168 176h8v8h-8zM168 192h8v8h-8zM168 208h8v8h-8zM184 0h8v8h-8zM184 16h8v8h-8zM184 32h8v8h-8zM184 48h8v8h-8zM184 64h8v8h-8zM184 80h8v8h-8zM184 96h8v8h-8zM184 112h8v8h-8zM184 128h8v8h-8zM184 144h8v8h-8zM184 160h8v8h-8zM184 176h8v8h-8zM184 192h8v8h-8zM184 208h8v8h-8zM200 0h8v8h-8zM200 16h8v8h-8zM200 32h8v8h-8zM200 48h8v8h-8zM200 64h8v8h-8zM200 80h8v8h-8zM200 96h8v8h-8zM200 112h8v8h-8zM200 128h8v8h-8zM200 144h8v8h-8zM200 160h8v8h-8zM200 176h8v8h-8zM200 192h8v8h-8zM200 208h8v8h-8zM216 0h8v8h-8zM216 16h8v8h-8zM216 32h8v8h-8zM216 48h8v8h-8zM216 64h8v8h-8zM216 80h8v8h-8zM216 96h8v8h-8zM216 112h8v8h-8zM216 128h8v8h-8zM216 144h8v8h-8zM216 160h8v8h-8zM216 176h8v8h-8zM216 192h8v8h-8zM216 208h8v8h-8zM0 8h8v8H0zM0 24h8v8H0zM0 40h8v8H0zM0 56h8v8H0zM0 72h8v8H0zM0 88h8v8H0zM0 104h8v8H0zM0 120h8v8H0zM0 136h8v8H0zM0 152h8v8H0zM0 168h8v8H0zM0 184h8v8H0zM0 200h8v8H0zM0 216h8v8H0zM16 8h8v8h-8zM16 24h8v8h-8zM16 40h8v8h-8zM16 56h8v8h-8zM16 72h8v8h-8zM16 88h8v8h-8zM16 104h8v8h-8zM16 120h8v8h-8zM16 136h8v8h-8zM16 152h8v8h-8zM16 168h8v8h-8zM16 184h8v8h-8zM16 200h8v8h-8zM16 216h8v8h-8zM32 8h8v8h-8zM32 24h8v8h-8zM32 40h8v8h-8zM32 56h8v8h-8zM32 72h8v8h-8zM32 88h8v8h-8zM32 104h8v8h-8zM32 120h8v8h-8zM32 136h8v8h-8zM32 152h8v8h-8zM32 168h8v8h-8zM32 184h8v8h-8zM32 200h8v8h-8zM32 216h8v8h-8zM48 8h8v8h-8zM48 24h8v8h-8zM48 40h8v8h-8zM48 56h8v8h-8zM48 72h8v8h-8zM48 88h8v8h-8zM48 104h8v8h-8zM48 120h8v8h-8zM48 136h8v8h-8zM48 152h8v8h-8zM48 168h8v8h-8zM48 184h8v8h-8zM48 200h8v8h-8zM48 216h8v8h-8zM64 8h8v8h-8zM64 24h8v8h-8zM64 40h8v8h-8zM64 56h8v8h-8zM64 72h8v8h-8zM64 88h8v8h-8zM64 104h8v8h-8zM64 120h8v8h-8zM64 136h8v8h-8zM64 152h8v8h-8zM64 168h8v8h-8zM64 184h8v8h-8zM64 200h8v8h-8zM64 216h8v8h-8zM80 8h8v8h-8zM80 24h8v8h-8zM80 40h8v8h-8zM80 56h8v8h-8zM80 72h8v8h-8zM80 88h8v8h-8zM80 104h8v8h-8zM80 120h8v8h-8zM80 136h8v8h-8zM80 152h8v8h-8zM80 168h8v8h-8zM80 184h8v8h-8zM80 200h8v8h-8zM80 216h8v8h-8zM96 8h8v8h-8zM96 24h8v8h-8zM96 40h8v8h-8zM96 56h8v8h-8zM96 72h8v8h-8zM96 88h8v8h-8zM96 104h8v8h-8zM96 120h8v8h-8zM96 136h8v8h-8zM96 152h8v8h-8zM96 168h8v8h-8zM96 184h8v8h-8zM96 200h8v8h-8zM96 216h8v8h-8zM112 8h8v8h-8zM112 24h8v8h-8zM112 40h8v8h-8zM112 56h8v8h-8zM112 72h8v8h-8zM112 88h8v8h-8zM112 104h8v8h-8zM112 120h8v8h-8zM112 136h8v8h-8zM112 152h8v8h-8zM112 168h8v8h-8zM112 184h8v8h-8zM112 200h8v8h-8zM112 216h8v8h-8zM128 8h8v8h-8zM128 24h8v8h-8zM128 40h8v8h-8zM128 56h8v8h-8zM128 72h8v8h-8zM128 88h8v8h-8zM128 104h8v8h-8zM128 120h8v8h-8zM128 136h8v8h-8zM128 152h8v8h-8zM128 168h8v8h-8zM128 184h8v8h-8zM128 200h8v8h-8zM128 216h8v8h-8zM144 8h8v8h-8zM144 24h8v8h-8zM144 40h8v8h-8zM144 56h8v8h-8zM144 72h8v8h-8zM144 88h8v8h-8zM144 104h8v8h-8zM144 120h8v8h-8zM144 136h8v8h-8zM144 152h8v8h-8zM144 168h8v8h-8zM144 184h8v8h-8zM144 200h8v8h-8zM144 216h8v8h-8zM160 8h8v8h-8zM160 24h8v8h-8zM160 40h8v8h-8zM160 56h8v8h-8zM160 72h8v8h-8zM160 88h8v8h-8zM160 104h8v8h-8zM160 120h8v8h-8zM160 136h8v8h-8zM160 152h8v8h-8zM160 168h8v8h-8zM160 184h8v8h-8zM160 200h8v8h-8zM160 216h8v8h-8zM176 8h8v8h-8zM176 24h8v8h-8zM176 40h8v8h-8zM176 56h8v8h-8zM176 72h8v8h-8zM176 88h8v8h-8zM176 104h8v8h-8zM176 120h8v8h-8zM176 136h8v8h-8zM176 152h8v8h-8zM176 168h8v8h-8zM176 184h8v8h-8zM176 200h8v8h-8zM176 216h8v8h-8zM192 8h8v8h-8zM192 24h8v8h-8zM192 40h8v8h-8zM192 56h8v8h-8zM192 72h8v8h-8zM192 88h8v8h-8zM192 104h8v8h-8zM192 120h8v8h-8zM192 136h8v8h-8zM192 152h8v8h-8zM192 168h8v8h-8zM192 184h8v8h-8zM192 200h8v8h-8zM192 216h8v8h-8zM208 8h8v8h-8zM208 24h8v8h-8zM208 40h8v8h-8zM208 56h8v8h-8zM208 72h8v8h-8zM208 88h8v8h-8zM208 104h8v8h-8zM208 120h8v8h-8zM208 136h8v8h-8zM208 152h8v8h-8zM208 168h8v8h-8zM208 184h8v8h-8zM208 200h8v8h-8zM208 216h8v8h-8z"/></svg>